<?xml version="1.0" encoding="UTF-8"?>
<!DOCTYPE svg PUBLIC "-//W3C//DTD SVG 1.1//EN" "http://www.w3.org/Graphics/SVG/1.1/DTD/svg11.dtd">
<svg xmlns="http://www.w3.org/2000/svg" version="1.1" width="400px" height="400px" style="shape-rendering:geometricPrecision; text-rendering:geometricPrecision; image-rendering:optimizeQuality; fill-rule:evenodd; clip-rule:evenodd" xmlns:xlink="http://www.w3.org/1999/xlink">
<g><path style="opacity:1" fill="#037191" d="M 220.5,8.5 C 222.932,8.98767 224.432,9.98767 225,11.5C 229.101,12.0794 233.268,12.0794 237.5,11.5C 310.523,28.3512 359.023,72.3512 383,143.5C 385.796,152.315 387.63,161.315 388.5,170.5C 388.523,176.712 389.19,182.712 390.5,188.5C 392.196,263.615 361.863,321.782 299.5,363C 264.998,383.792 227.665,392.959 187.5,390.5C 182.056,389.116 176.389,388.45 170.5,388.5C 104.649,377.134 56.4828,341.8 26,282.5C 3.60755,232.322 1.60755,181.322 20,129.5C 50.8399,58.6855 104.673,18.1855 181.5,8C 194.526,7.24382 207.526,7.41048 220.5,8.5 Z"/></g>
<g><path style="opacity:1" fill="#5792ab" d="M 220.5,8.5 C 226.386,8.97966 232.052,9.97966 237.5,11.5C 233.268,12.0794 229.101,12.0794 225,11.5C 224.432,9.98767 222.932,8.98767 220.5,8.5 Z"/></g>
<g><path style="opacity:1" fill="#fdfefe" d="M 177.5,285.5 C 170.596,280.102 164.096,274.102 158,267.5C 148.092,255.348 138.425,243.015 129,230.5C 127.223,228.21 125.056,226.543 122.5,225.5C 104.516,234.165 85.5164,237.665 65.5,236C 48.608,231.103 41.4414,219.936 44,202.5C 44.3439,191.489 49.5105,183.656 59.5,179C 77.5,178.667 95.5,178.333 113.5,178C 122.993,175.253 131.66,170.92 139.5,165C 158.322,150.756 177.322,136.756 196.5,123C 206.169,116.497 216.169,110.497 226.5,105C 243.606,98.4268 261.273,96.0935 279.5,98C 284.394,98.7982 289.061,100.298 293.5,102.5C 294.331,96.1928 294.831,89.8594 295,83.5C 309.167,95 323.333,106.5 337.5,118C 323.936,130.067 309.936,141.567 295.5,152.5C 294.503,145.866 294.17,139.2 294.5,132.5C 280.712,128.347 266.712,127.513 252.5,130C 220.014,138.825 197.181,158.659 184,189.5C 178.758,212.87 183.758,233.87 199,252.5C 217.232,270.244 239.066,277.41 264.5,274C 274.282,272.593 283.948,270.759 293.5,268.5C 293.686,278.183 293.852,287.85 294,297.5C 271.058,308.867 246.891,312.367 221.5,308C 214.468,306.579 207.801,304.246 201.5,301C 193.273,296.061 185.273,290.895 177.5,285.5 Z"/></g>
<g><path style="opacity:0.78" fill="#5399b0" d="M 388.5,170.5 C 389.946,176.274 390.612,182.274 390.5,188.5C 389.19,182.712 388.523,176.712 388.5,170.5 Z"/></g>
<g><path style="opacity:1" fill="#176788" d="M 122.5,225.5 C 125.056,226.543 127.223,228.21 129,230.5C 138.425,243.015 148.092,255.348 158,267.5C 164.096,274.102 170.596,280.102 177.5,285.5C 169.685,281.2 162.852,275.533 157,268.5C 145.287,254.292 133.787,239.959 122.5,225.5 Z"/></g>
<g><path style="opacity:0.631" fill="#67a5b9" d="M 170.5,388.5 C 176.389,388.45 182.056,389.116 187.5,390.5C 181.611,390.55 175.944,389.884 170.5,388.5 Z"/></g>
</svg>
